<svg xmlns="http://www.w3.org/2000/svg" viewBox="0 0 1200 600"><path fill="#eee6d6" d="M0 0h1200v600H0z"/><circle cx="730" cy="240" r="165" fill="#e4d5be"/><g fill="none" stroke="#697665" stroke-width="3"><path d="M320 600Q360 370 260 155M450 600Q390 390 490 95M610 600Q620 360 600 175M740 600Q690 370 810 120M900 600Q950 380 925 230"/></g><g fill="#88917a"><ellipse cx="283" cy="217" rx="18" ry="62" transform="rotate(-45 283 217)"/><ellipse cx="330" cy="288" rx="17" ry="64" transform="rotate(40 330 288)"/><ellipse cx="441" cy="253" rx="21" ry="76" transform="rotate(35 441 253)"/><ellipse cx="461" cy="191" rx="14" ry="48" transform="rotate(-35 461 191)"/><ellipse cx="613" cy="300" rx="22" ry="80" transform="rotate(-37 613 300)"/><ellipse cx="640" cy="396" rx="22" ry="74" transform="rotate(35 640 396)"/><ellipse cx="752" cy="279" rx="23" ry="82" transform="rotate(39 752 279)"/><ellipse cx="780" cy="199" rx="20" ry="65" transform="rotate(-33 780 199)"/><ellipse cx="939" cy="354" rx="20" ry="73" transform="rotate(37 939 354)"/><ellipse cx="925" cy="300" rx="15" ry="46" transform="rotate(-38 925 300)"/></g></svg>
