<svg xmlns="http://www.w3.org/2000/svg" viewBox="0 0 1200 600"><defs><linearGradient id="mist" x2="0" y2="1"><stop stop-color="#f7f4eb" stop-opacity="0"/><stop offset="1" stop-color="#f7f4eb"/></linearGradient></defs><path fill="#f7f4eb" d="M0 0h1200v600H0z"/><circle cx="910" cy="130" r="48" fill="#b46350" opacity=".8"/><path fill="#bac0b9" d="M0 320 140 120 240 280 410 90 570 320 740 160 890 340 1070 130 1200 310V600H0Z"/><path fill="#889990" d="M0 430 180 290 290 390 490 200 640 395 850 220 980 440 1200 240V600H0Z"/><path fill="url(#mist)" d="M0 200h1200v400H0z"/><path fill="#465f55" opacity=".8" d="M0 530Q170 410 360 495T760 520T1200 500V600H0Z"/><path fill="#f7f4eb" d="M0 580Q290 490 540 565T1000 540T1200 550V600H0Z"/><g stroke="#68756b" stroke-width="2" fill="none"><path d="m570 180 25-7 25 7M620 162l16-5 16 5"/></g></svg>
